# 3ds Max Wavefront OBJ Exporter v0.99 - (c)2007 guruware
# File Created: 26.12.2023 19:38:27

mtllib hut.mtl

#
# object Cylinder001
#

v  39.0255 40.0000 -23.0908
v  39.0255 0.0000 -23.0908
v  32.0795 0.0000 -35.1215
v  32.0795 40.0000 -35.1215
v  21.4378 40.0000 -44.0510
v  21.4378 0.0000 -44.0510
v  8.3837 0.0000 -48.8023
v  8.3837 40.0000 -48.8023
v  -5.5082 40.0000 -48.8023
v  -5.5082 0.0000 -48.8023
v  -18.5622 40.0000 -44.0510
v  -18.5622 0.0000 -44.0510
v  -29.2040 40.0000 -35.1215
v  -29.2040 0.0000 -35.1215
v  -36.1499 0.0000 -23.0908
v  -36.1499 40.0000 -23.0908
v  -38.5622 40.0000 -9.4100
v  -38.5622 0.0000 -9.4100
v  -36.1499 40.0000 4.2708
v  -36.1499 0.0000 4.2708
v  -29.2040 40.0000 16.3015
v  -29.2040 0.0000 16.3015
v  -18.5623 40.0000 25.2310
v  -18.5623 0.0000 25.2310
v  -5.5082 40.0000 29.9823
v  -5.5082 0.0000 29.9823
v  8.3837 40.0000 29.9823
v  8.3837 0.0000 29.9823
v  21.4377 40.0000 25.2310
v  21.4377 0.0000 25.2310
v  32.0795 0.0000 16.3015
v  32.0795 40.0000 16.3015
v  30.5051 40.0000 -33.8004
v  37.0941 40.0000 -22.3878
v  39.3824 40.0000 -9.4100
v  37.0941 40.0000 3.5679
v  30.5050 40.0000 14.9804
v  20.4101 40.0000 23.4510
v  8.0268 40.0000 27.9582
v  -5.1513 40.0000 27.9582
v  -17.5346 40.0000 23.4510
v  -27.6295 40.0000 14.9803
v  -34.2186 40.0000 3.5678
v  -36.5069 40.0000 -9.4100
v  -34.2186 40.0000 -22.3878
v  -27.6295 40.0000 -33.8004
v  -17.5346 40.0000 -42.2710
v  -5.1513 40.0000 -46.7782
v  8.0268 40.0000 -46.7782
v  20.4101 40.0000 -42.2710
v  39.0255 40.0000 4.2708
v  41.4378 40.0000 -9.4100
v  39.0255 1.7765 4.2708
v  39.0255 0.0000 4.2708
v  41.4378 0.0000 -9.4100
v  41.4378 1.7765 -9.4100
v  41.4378 37.4684 -9.4100
v  39.0255 37.4684 4.2708
v  40.6275 37.4684 -14.0051
v  40.6275 1.7765 -14.0051
v  39.0051 1.7765 4.3060
v  39.0051 37.4684 4.3060
# 62 vertices

vn 0.6975 0.6701 -0.2539
vn 0.9397 0.0000 -0.3420
vn 0.7660 0.0000 -0.6428
vn 0.5687 0.6700 -0.4772
vn 0.3712 0.6701 -0.6428
vn 0.5000 0.0000 -0.8660
vn 0.1736 0.0000 -0.9848
vn 0.1289 0.6701 -0.7310
vn -0.1289 0.6700 -0.7311
vn -0.1736 0.0000 -0.9848
vn -0.3712 0.6700 -0.6429
vn -0.5000 0.0000 -0.8660
vn -0.5687 0.6700 -0.4772
vn -0.7660 0.0000 -0.6428
vn -0.9397 0.0000 -0.3420
vn -0.6976 0.6700 -0.2539
vn -0.7423 0.6700 -0.0000
vn -1.0000 0.0000 -0.0000
vn -0.6976 0.6700 0.2539
vn -0.9397 0.0000 0.3420
vn -0.5687 0.6700 0.4772
vn -0.7660 0.0000 0.6428
vn -0.3712 0.6700 0.6429
vn -0.5000 0.0000 0.8660
vn -0.1289 0.6700 0.7311
vn -0.1736 0.0000 0.9848
vn 0.1289 0.6700 0.7311
vn 0.1736 0.0000 0.9848
vn 0.3712 0.6700 0.6429
vn 0.5000 0.0000 0.8660
vn 0.7660 0.0000 0.6428
vn 0.5687 0.6700 0.4772
vn 0.0000 1.0000 -0.0000
vn 0.0000 -1.0000 -0.0000
vn 0.6976 0.6700 0.2539
vn 0.7423 0.6701 0.0000
vn 0.9397 0.0000 0.3420
vn 1.0000 0.0000 0.0000
vn -0.9848 0.0000 0.1736
vn -0.8660 0.0000 -0.5000
# 40 vertex normals

vt 0.8056 1.0000 1.0000
vt 0.8056 0.0000 1.0000
vt 0.8611 0.0000 1.0000
vt 0.8611 1.0000 1.0000
vt 0.9167 1.0000 1.0000
vt 0.9167 0.0000 1.0000
vt 0.9722 0.0000 1.0000
vt 0.9722 1.0000 1.0000
vt 0.0278 1.0000 1.0000
vt -0.0278 1.0000 1.0000
vt -0.0278 0.0000 1.0000
vt 0.0278 0.0000 1.0000
vt 0.0833 1.0000 1.0000
vt 0.0833 0.0000 1.0000
vt 0.1389 1.0000 1.0000
vt 0.1389 0.0000 1.0000
vt 0.1944 0.0000 1.0000
vt 0.1944 1.0000 1.0000
vt 0.2500 1.0000 1.0000
vt 0.2500 0.0000 1.0000
vt 0.3056 1.0000 1.0000
vt 0.3056 0.0000 1.0000
vt 0.3611 1.0000 1.0000
vt 0.3611 0.0000 1.0000
vt 0.4167 1.0000 1.0000
vt 0.4167 0.0000 1.0000
vt 0.4722 1.0000 1.0000
vt 0.4722 0.0000 1.0000
vt 0.5278 1.0000 1.0000
vt 0.5278 0.0000 1.0000
vt 0.5833 1.0000 1.0000
vt 0.5833 0.0000 1.0000
vt 0.6389 0.0000 1.0000
vt 0.6389 1.0000 1.0000
vt 0.8583 1.0000 1.0000
vt 0.7529 1.0000 1.0000
vt 0.7065 1.0000 1.0000
vt 0.6721 1.0000 1.0000
vt 0.6538 1.0000 1.0000
vt 0.9046 1.0000 1.0000
vt 0.9390 1.0000 1.0000
vt 0.9573 1.0000 1.0000
vt 0.9100 1.0000 1.0000
vt 0.9462 1.0000 1.0000
vt 0.9655 1.0000 1.0000
vt 0.7500 1.0000 1.0000
vt 0.7011 1.0000 1.0000
vt 0.6649 1.0000 1.0000
vt 0.6456 1.0000 1.0000
vt 0.6944 0.0444 1.0000
vt 0.6944 0.0000 1.0000
vt 0.7500 0.0000 1.0000
vt 0.7500 0.0444 1.0000
vt 0.7500 0.9367 1.0000
vt 0.6944 1.0000 1.0000
vt 0.6944 0.9367 1.0000
vt 0.7687 0.9367 1.0000
vt 0.7687 0.0444 1.0000
vt 0.6943 0.0444 1.0000
vt 0.6943 0.9367 1.0000
# 60 texture coords

o Cylinder001
g Cylinder001
usemtl wire_143225087
s 8
f 1/1/1 2/2/2 3/3/3 4/4/4 
f 5/5/5 4/4/4 3/3/3 6/6/6 
f 5/5/5 6/6/6 7/7/7 8/8/8 
f 9/9/9 8/10/8 7/11/7 10/12/10 
f 11/13/11 9/9/9 10/12/10 12/14/12 
f 13/15/13 11/13/11 12/14/12 14/16/14 
f 13/15/13 14/16/14 15/17/15 16/18/16 
f 17/19/17 16/18/16 15/17/15 18/20/18 
f 19/21/19 17/19/17 18/20/18 20/22/20 
f 21/23/21 19/21/19 20/22/20 22/24/22 
f 23/25/23 21/23/21 22/24/22 24/26/24 
f 25/27/25 23/25/23 24/26/24 26/28/26 
f 27/29/27 25/27/25 26/28/26 28/30/28 
f 29/31/29 27/29/27 28/30/28 30/32/30 
f 29/31/29 30/32/30 31/33/31 32/34/32 
s off
f 4/4/4 33/35/33 34/1/34 35/36/34 36/37/34 37/38/34 38/39/34 39/39/34 40/38/34 41/37/34 42/36/34 43/1/34 44/35/34 45/40/34 46/41/34 47/42/34 48/42/34 49/41/34 50/40/34 33/35/33 4/4/4 5/43/5 8/44/8 9/45/9 11/45/11 13/44/13 16/43/16 17/4/17 19/1/19 21/46/21 23/47/23 25/48/25 27/49/27 29/49/29 32/48/32 51/47/35 52/46/36 1/1/1 
s 8
f 53/50/37 54/51/37 55/52/38 56/53/38 
f 57/54/38 52/46/36 51/55/35 58/56/37 
f 55/52/38 2/2/2 1/1/1 52/46/36 57/54/38 59/57/39 60/58/39 56/53/38 
f 61/59/40 62/60/40 58/56/37 51/55/35 32/34/32 31/33/31 54/51/37 53/50/37 
# 20 polygons

#
# object Cone001
#

v  46.7916 40.1111 -10.5571
v  45.2582 40.1111 -22.2039
v  36.5649 49.1111 -19.8745
v  37.7916 49.1111 -10.5571
v  40.7627 40.1111 -33.0571
v  32.9685 49.1111 -28.5571
v  33.6114 40.1111 -42.3769
v  27.2474 49.1111 -36.0129
v  24.2916 40.1111 -49.5282
v  19.7916 49.1111 -41.7340
v  13.4384 40.1111 -54.0237
v  11.1091 49.1111 -45.3304
v  1.7916 40.1111 -55.5571
v  1.7916 49.1111 -46.5571
v  -9.8553 40.1111 -54.0237
v  -7.5259 49.1111 -45.3304
v  -20.7084 40.1111 -49.5282
v  -16.2084 49.1111 -41.7340
v  -30.0282 40.1111 -42.3769
v  -23.6643 49.1111 -36.0129
v  -37.1796 40.1111 -33.0571
v  -29.3853 49.1111 -28.5571
v  -41.6751 40.1111 -22.2039
v  -32.9818 49.1111 -19.8745
v  -43.2084 40.1111 -10.5571
v  -34.2084 49.1111 -10.5571
v  -41.6751 40.1111 1.0898
v  -32.9818 49.1111 -1.2396
v  -37.1796 40.1111 11.9429
v  -29.3854 49.1111 7.4429
v  -30.0283 40.1111 21.2627
v  -23.6643 49.1111 14.8988
v  -20.7084 40.1111 28.4141
v  -16.2084 49.1111 20.6199
v  -9.8553 40.1111 32.9096
v  -7.5259 49.1111 24.2163
v  1.7915 40.1111 34.4429
v  1.7915 49.1111 25.4429
v  13.4384 40.1111 32.9096
v  11.1090 49.1111 24.2163
v  24.2915 40.1111 28.4141
v  19.7915 49.1111 20.6199
v  33.6114 40.1111 21.2628
v  27.2474 49.1111 14.8988
v  40.7627 40.1111 11.9430
v  32.9685 49.1111 7.4430
v  45.2582 40.1111 1.0898
v  36.5649 49.1111 -1.2395
v  27.8716 58.1111 -17.5452
v  28.7916 58.1111 -10.5571
v  25.1743 58.1111 -24.0571
v  20.8834 58.1111 -29.6489
v  15.2916 58.1111 -33.9397
v  8.7797 58.1111 -36.6371
v  1.7916 58.1111 -37.5571
v  -5.1965 58.1111 -36.6371
v  -11.7084 58.1111 -33.9397
v  -17.3003 58.1111 -29.6489
v  -21.5911 58.1111 -24.0571
v  -24.2884 58.1111 -17.5452
v  -25.2084 58.1111 -10.5571
v  -24.2884 58.1111 -3.5689
v  -21.5911 58.1111 2.9429
v  -17.3003 58.1111 8.5348
v  -11.7084 58.1111 12.8256
v  -5.1966 58.1111 15.5229
v  1.7916 58.1111 16.4429
v  8.7797 58.1111 15.5229
v  15.2916 58.1111 12.8256
v  20.8834 58.1111 8.5348
v  25.1742 58.1111 2.9430
v  27.8716 58.1111 -3.5689
v  19.1782 67.1111 -15.2158
v  19.7916 67.1111 -10.5571
v  17.3800 67.1111 -19.5571
v  14.5195 67.1111 -23.2850
v  10.7916 67.1111 -26.1455
v  6.4503 67.1111 -27.9437
v  1.7916 67.1111 -28.5571
v  -2.8672 67.1111 -27.9437
v  -7.2084 67.1111 -26.1455
v  -10.9364 67.1111 -23.2850
v  -13.7969 67.1111 -19.5571
v  -15.5951 67.1111 -15.2158
v  -16.2084 67.1111 -10.5571
v  -15.5951 67.1111 -5.8983
v  -13.7969 67.1111 -1.5571
v  -10.9364 67.1111 2.1709
v  -7.2084 67.1111 5.0314
v  -2.8672 67.1111 6.8296
v  1.7916 67.1111 7.4429
v  6.4503 67.1111 6.8296
v  10.7916 67.1111 5.0314
v  14.5195 67.1111 2.1709
v  17.3800 67.1111 -1.5570
v  19.1782 67.1111 -5.8983
v  10.4849 76.1111 -12.8864
v  10.7916 76.1111 -10.5571
v  9.5858 76.1111 -15.0571
v  8.1555 76.1111 -16.9210
v  6.2916 76.1111 -18.3513
v  4.1209 76.1111 -19.2504
v  1.7916 76.1111 -19.5571
v  -0.5378 76.1111 -19.2504
v  -2.7084 76.1111 -18.3513
v  -4.5724 76.1111 -16.9210
v  -6.0027 76.1111 -15.0571
v  -6.9018 76.1111 -12.8864
v  -7.2084 76.1111 -10.5571
v  -6.9018 76.1111 -8.2277
v  -6.0027 76.1111 -6.0571
v  -4.5724 76.1111 -4.1931
v  -2.7084 76.1111 -2.7628
v  -0.5378 76.1111 -1.8637
v  1.7916 76.1111 -1.5571
v  4.1209 76.1111 -1.8637
v  6.2916 76.1111 -2.7628
v  8.1555 76.1111 -4.1931
v  9.5858 76.1111 -6.0570
v  10.4849 76.1111 -8.2277
v  1.7916 85.1111 -10.5571
v  39.9933 40.1111 -10.5571
v  38.6916 40.1111 -20.4444
v  38.6916 40.1111 -0.6697
v  34.8752 40.1111 8.5438
v  28.8043 40.1111 16.4557
v  20.8924 40.1111 22.5266
v  11.6789 40.1111 26.3430
v  1.7915 40.1111 27.6447
v  -8.0958 40.1111 26.3430
v  -17.3093 40.1111 22.5266
v  -25.2212 40.1111 16.4556
v  -31.2921 40.1111 8.5438
v  -35.1085 40.1111 -0.6697
v  -36.4102 40.1111 -10.5571
v  -35.1085 40.1111 -20.4444
v  -31.2921 40.1111 -29.6579
v  -25.2211 40.1111 -37.5698
v  -17.3093 40.1111 -43.6407
v  -8.0958 40.1111 -47.4571
v  1.7916 40.1111 -48.7588
v  11.6789 40.1111 -47.4571
v  20.8924 40.1111 -43.6407
v  28.8043 40.1111 -37.5698
v  34.8752 40.1111 -29.6579
# 145 vertices

vn 0.3548 0.9349 0.0000
vn 0.3427 0.9349 -0.0918
vn 0.6830 0.7071 -0.1830
vn 0.7071 0.7071 0.0000
vn 0.3073 0.9349 -0.1774
vn 0.6124 0.7071 -0.3536
vn 0.2509 0.9349 -0.2509
vn 0.5000 0.7071 -0.5000
vn 0.1774 0.9349 -0.3073
vn 0.3536 0.7071 -0.6124
vn 0.0918 0.9349 -0.3427
vn 0.1830 0.7071 -0.6830
vn 0.0000 -0.3580 -0.9337
vn 0.0000 0.7071 -0.7071
vn -0.2417 -0.3580 -0.9019
vn -0.1830 0.7071 -0.6830
vn -0.4669 -0.3580 -0.8086
vn -0.3536 0.7071 -0.6124
vn -0.6603 -0.3580 -0.6603
vn -0.5000 0.7071 -0.5000
vn -0.8086 -0.3580 -0.4669
vn -0.6124 0.7071 -0.3536
vn -0.9019 -0.3580 -0.2417
vn -0.6830 0.7071 -0.1830
vn -0.9337 -0.3580 -0.0000
vn -0.7071 0.7071 -0.0000
vn -0.9019 -0.3580 0.2417
vn -0.6830 0.7071 0.1830
vn -0.8086 -0.3580 0.4669
vn -0.6124 0.7071 0.3536
vn -0.6603 -0.3580 0.6603
vn -0.5000 0.7071 0.5000
vn -0.4669 -0.3580 0.8086
vn -0.3536 0.7071 0.6124
vn -0.2417 -0.3580 0.9019
vn -0.1830 0.7071 0.6830
vn -0.0000 -0.3580 0.9337
vn -0.0000 0.7071 0.7071
vn 0.0918 0.9349 0.3427
vn 0.1830 0.7071 0.6830
vn 0.1774 0.9349 0.3073
vn 0.3536 0.7071 0.6124
vn 0.2509 0.9349 0.2509
vn 0.5000 0.7071 0.5000
vn 0.3073 0.9349 0.1774
vn 0.6124 0.7071 0.3536
vn 0.3427 0.9349 0.0918
vn 0.6830 0.7071 0.1830
vn 1.0000 0.0000 -0.0000
vn 0.0000 -1.0000 -0.0000
vn 0.0000 1.0000 -0.0000
# 51 vertex normals

vt 0.7500 0.0000 1.0000
vt 0.7917 0.0000 1.0000
vt 0.7917 0.2000 0.8000
vt 0.7500 0.2000 0.8000
vt 0.8333 0.0000 1.0000
vt 0.8333 0.2000 0.8000
vt 0.8750 0.0000 1.0000
vt 0.8750 0.2000 0.8000
vt 0.9167 0.0000 1.0000
vt 0.9167 0.2000 0.8000
vt 0.9583 0.0000 1.0000
vt 0.9583 0.2000 0.8000
vt 1.0000 0.0000 1.0000
vt 1.0000 0.2000 0.8000
vt -0.0000 0.0000 1.0000
vt 0.0417 0.0000 1.0000
vt 0.0417 0.2000 0.8000
vt -0.0000 0.2000 0.8000
vt 0.0833 0.0000 1.0000
vt 0.0833 0.2000 0.8000
vt 0.1250 0.0000 1.0000
vt 0.1250 0.2000 0.8000
vt 0.1667 0.0000 1.0000
vt 0.1667 0.2000 0.8000
vt 0.2083 0.0000 1.0000
vt 0.2083 0.2000 0.8000
vt 0.2500 0.0000 1.0000
vt 0.2500 0.2000 0.8000
vt 0.2917 0.0000 1.0000
vt 0.2917 0.2000 0.8000
vt 0.3333 0.0000 1.0000
vt 0.3333 0.2000 0.8000
vt 0.3750 0.0000 1.0000
vt 0.3750 0.2000 0.8000
vt 0.4167 0.0000 1.0000
vt 0.4167 0.2000 0.8000
vt 0.4583 0.0000 1.0000
vt 0.4583 0.2000 0.8000
vt 0.5000 0.0000 1.0000
vt 0.5000 0.2000 0.8000
vt 0.5417 0.0000 1.0000
vt 0.5417 0.2000 0.8000
vt 0.5833 0.0000 1.0000
vt 0.5833 0.2000 0.8000
vt 0.6250 0.0000 1.0000
vt 0.6250 0.2000 0.8000
vt 0.6667 0.0000 1.0000
vt 0.6667 0.2000 0.8000
vt 0.7083 0.0000 1.0000
vt 0.7083 0.2000 0.8000
vt 0.7917 0.4000 0.6000
vt 0.7500 0.4000 0.6000
vt 0.8333 0.4000 0.6000
vt 0.8750 0.4000 0.6000
vt 0.9167 0.4000 0.6000
vt 0.9583 0.4000 0.6000
vt 1.0000 0.4000 0.6000
vt 0.0417 0.4000 0.6000
vt -0.0000 0.4000 0.6000
vt 0.0833 0.4000 0.6000
vt 0.1250 0.4000 0.6000
vt 0.1667 0.4000 0.6000
vt 0.2083 0.4000 0.6000
vt 0.2500 0.4000 0.6000
vt 0.2917 0.4000 0.6000
vt 0.3333 0.4000 0.6000
vt 0.3750 0.4000 0.6000
vt 0.4167 0.4000 0.6000
vt 0.4583 0.4000 0.6000
vt 0.5000 0.4000 0.6000
vt 0.5417 0.4000 0.6000
vt 0.5833 0.4000 0.6000
vt 0.6250 0.4000 0.6000
vt 0.6667 0.4000 0.6000
vt 0.7083 0.4000 0.6000
vt 0.7917 0.6000 0.4000
vt 0.7500 0.6000 0.4000
vt 0.8333 0.6000 0.4000
vt 0.8750 0.6000 0.4000
vt 0.9167 0.6000 0.4000
vt 0.9583 0.6000 0.4000
vt 1.0000 0.6000 0.4000
vt 0.0417 0.6000 0.4000
vt -0.0000 0.6000 0.4000
vt 0.0833 0.6000 0.4000
vt 0.1250 0.6000 0.4000
vt 0.1667 0.6000 0.4000
vt 0.2083 0.6000 0.4000
vt 0.2500 0.6000 0.4000
vt 0.2917 0.6000 0.4000
vt 0.3333 0.6000 0.4000
vt 0.3750 0.6000 0.4000
vt 0.4167 0.6000 0.4000
vt 0.4583 0.6000 0.4000
vt 0.5000 0.6000 0.4000
vt 0.5417 0.6000 0.4000
vt 0.5833 0.6000 0.4000
vt 0.6250 0.6000 0.4000
vt 0.6667 0.6000 0.4000
vt 0.7083 0.6000 0.4000
vt 0.7917 0.8000 0.2000
vt 0.7500 0.8000 0.2000
vt 0.8333 0.8000 0.2000
vt 0.8750 0.8000 0.2000
vt 0.9167 0.8000 0.2000
vt 0.9583 0.8000 0.2000
vt 1.0000 0.8000 0.2000
vt 0.0417 0.8000 0.2000
vt -0.0000 0.8000 0.2000
vt 0.0833 0.8000 0.2000
vt 0.1250 0.8000 0.2000
vt 0.1667 0.8000 0.2000
vt 0.2083 0.8000 0.2000
vt 0.2500 0.8000 0.2000
vt 0.2917 0.8000 0.2000
vt 0.3333 0.8000 0.2000
vt 0.3750 0.8000 0.2000
vt 0.4167 0.8000 0.2000
vt 0.4583 0.8000 0.2000
vt 0.5000 0.8000 0.2000
vt 0.5417 0.8000 0.2000
vt 0.5833 0.8000 0.2000
vt 0.6250 0.8000 0.2000
vt 0.6667 0.8000 0.2000
vt 0.7083 0.8000 0.2000
vt 0.5000 1.0000 0.0000
vt 0.2787 0.0000 -0.1317
vt 0.1676 0.0000 -0.3860
vt 0.0792 0.0000 -0.6140
vt 0.0194 0.0000 -0.8002
vt -0.0076 0.0000 -0.9319
vt -0.0000 0.0000 -1.0000
vt 0.0417 0.0000 -1.0000
vt 0.1146 0.0000 -0.9319
vt 0.2137 0.0000 -0.8002
vt 0.3324 0.0000 -0.6140
vt 0.4625 0.0000 -0.3860
vt 0.5952 0.0000 -0.1317
vt 0.7213 0.0000 0.1317
vt 0.8324 0.0000 0.3860
vt 0.9208 0.0000 0.6140
vt 0.9806 0.0000 0.8002
vt 1.0076 0.0000 0.9319
# 143 texture coords

o Cone001
g Cone001
usemtl Material__3
s 8
f 63/61/41 64/62/42 65/63/43 66/64/44 
f 64/62/42 67/65/45 68/66/46 65/63/43 
f 67/65/45 69/67/47 70/68/48 68/66/46 
f 69/67/47 71/69/49 72/70/50 70/68/48 
f 71/69/49 73/71/51 74/72/52 72/70/50 
f 73/71/51 75/73/53 76/74/54 74/72/52 
f 75/75/53 77/76/55 78/77/56 76/78/54 
f 77/76/55 79/79/57 80/80/58 78/77/56 
f 79/79/57 81/81/59 82/82/60 80/80/58 
f 81/81/59 83/83/61 84/84/62 82/82/60 
f 83/83/61 85/85/63 86/86/64 84/84/62 
f 85/85/63 87/87/65 88/88/66 86/86/64 
f 87/87/65 89/89/67 90/90/68 88/88/66 
f 89/89/67 91/91/69 92/92/70 90/90/68 
f 91/91/69 93/93/71 94/94/72 92/92/70 
f 93/93/71 95/95/73 96/96/74 94/94/72 
f 95/95/73 97/97/75 98/98/76 96/96/74 
f 97/97/75 99/99/77 100/100/78 98/98/76 
f 99/99/77 101/101/79 102/102/80 100/100/78 
f 101/101/79 103/103/81 104/104/82 102/102/80 
f 103/103/81 105/105/83 106/106/84 104/104/82 
f 105/105/83 107/107/85 108/108/86 106/106/84 
f 107/107/85 109/109/87 110/110/88 108/108/86 
f 109/109/87 63/61/41 66/64/44 110/110/88 
f 66/64/44 65/63/43 111/111/43 112/112/44 
f 65/63/43 68/66/46 113/113/46 111/111/43 
f 68/66/46 70/68/48 114/114/48 113/113/46 
f 70/68/48 72/70/50 115/115/50 114/114/48 
f 72/70/50 74/72/52 116/116/52 115/115/50 
f 74/72/52 76/74/54 117/117/54 116/116/52 
f 76/78/54 78/77/56 118/118/56 117/119/54 
f 78/77/56 80/80/58 119/120/58 118/118/56 
f 80/80/58 82/82/60 120/121/60 119/120/58 
f 82/82/60 84/84/62 121/122/62 120/121/60 
f 84/84/62 86/86/64 122/123/64 121/122/62 
f 86/86/64 88/88/66 123/124/66 122/123/64 
f 88/88/66 90/90/68 124/125/68 123/124/66 
f 90/90/68 92/92/70 125/126/70 124/125/68 
f 92/92/70 94/94/72 126/127/72 125/126/70 
f 94/94/72 96/96/74 127/128/74 126/127/72 
f 96/96/74 98/98/76 128/129/76 127/128/74 
f 98/98/76 100/100/78 129/130/78 128/129/76 
f 100/100/78 102/102/80 130/131/80 129/130/78 
f 102/102/80 104/104/82 131/132/82 130/131/80 
f 104/104/82 106/106/84 132/133/84 131/132/82 
f 106/106/84 108/108/86 133/134/86 132/133/84 
f 108/108/86 110/110/88 134/135/88 133/134/86 
f 110/110/88 66/64/44 112/112/44 134/135/88 
f 112/112/44 111/111/43 135/136/43 136/137/44 
f 111/111/43 113/113/46 137/138/46 135/136/43 
f 113/113/46 114/114/48 138/139/48 137/138/46 
f 114/114/48 115/115/50 139/140/50 138/139/48 
f 115/115/50 116/116/52 140/141/52 139/140/50 
f 116/116/52 117/117/54 141/142/54 140/141/52 
f 117/119/54 118/118/56 142/143/56 141/144/54 
f 118/118/56 119/120/58 143/145/58 142/143/56 
f 119/120/58 120/121/60 144/146/60 143/145/58 
f 120/121/60 121/122/62 145/147/62 144/146/60 
f 121/122/62 122/123/64 146/148/64 145/147/62 
f 122/123/64 123/124/66 147/149/66 146/148/64 
f 123/124/66 124/125/68 148/150/68 147/149/66 
f 124/125/68 125/126/70 149/151/70 148/150/68 
f 125/126/70 126/127/72 150/152/72 149/151/70 
f 126/127/72 127/128/74 151/153/74 150/152/72 
f 127/128/74 128/129/76 152/154/76 151/153/74 
f 128/129/76 129/130/78 153/155/78 152/154/76 
f 129/130/78 130/131/80 154/156/80 153/155/78 
f 130/131/80 131/132/82 155/157/82 154/156/80 
f 131/132/82 132/133/84 156/158/84 155/157/82 
f 132/133/84 133/134/86 157/159/86 156/158/84 
f 133/134/86 134/135/88 158/160/88 157/159/86 
f 134/135/88 112/112/44 136/137/44 158/160/88 
f 136/137/44 135/136/43 159/161/43 160/162/44 
f 135/136/43 137/138/46 161/163/46 159/161/43 
f 137/138/46 138/139/48 162/164/48 161/163/46 
f 138/139/48 139/140/50 163/165/50 162/164/48 
f 139/140/50 140/141/52 164/166/52 163/165/50 
f 140/141/52 141/142/54 165/167/54 164/166/52 
f 141/144/54 142/143/56 166/168/56 165/169/54 
f 142/143/56 143/145/58 167/170/58 166/168/56 
f 143/145/58 144/146/60 168/171/60 167/170/58 
f 144/146/60 145/147/62 169/172/62 168/171/60 
f 145/147/62 146/148/64 170/173/64 169/172/62 
f 146/148/64 147/149/66 171/174/66 170/173/64 
f 147/149/66 148/150/68 172/175/68 171/174/66 
f 148/150/68 149/151/70 173/176/70 172/175/68 
f 149/151/70 150/152/72 174/177/72 173/176/70 
f 150/152/72 151/153/74 175/178/74 174/177/72 
f 151/153/74 152/154/76 176/179/76 175/178/74 
f 152/154/76 153/155/78 177/180/78 176/179/76 
f 153/155/78 154/156/80 178/181/80 177/180/78 
f 154/156/80 155/157/82 179/182/82 178/181/80 
f 155/157/82 156/158/84 180/183/84 179/182/82 
f 156/158/84 157/159/86 181/184/86 180/183/84 
f 157/159/86 158/160/88 182/185/88 181/184/86 
f 158/160/88 136/137/44 160/162/44 182/185/88 
f 160/162/44 159/161/43 183/186/89 183/186/89 
f 159/161/43 161/163/46 183/186/89 183/186/89 
f 161/163/46 162/164/48 183/186/89 183/186/89 
f 162/164/48 163/165/50 183/186/89 183/186/89 
f 163/165/50 164/166/52 183/186/89 183/186/89 
f 164/166/52 165/167/54 183/186/89 183/186/89 
f 165/169/54 166/168/56 183/186/89 183/186/89 
f 166/168/56 167/170/58 183/186/89 183/186/89 
f 167/170/58 168/171/60 183/186/89 183/186/89 
f 168/171/60 169/172/62 183/186/89 183/186/89 
f 169/172/62 170/173/64 183/186/89 183/186/89 
f 170/173/64 171/174/66 183/186/89 183/186/89 
f 171/174/66 172/175/68 183/186/89 183/186/89 
f 172/175/68 173/176/70 183/186/89 183/186/89 
f 173/176/70 174/177/72 183/186/89 183/186/89 
f 174/177/72 175/178/74 183/186/89 183/186/89 
f 175/178/74 176/179/76 183/186/89 183/186/89 
f 176/179/76 177/180/78 183/186/89 183/186/89 
f 177/180/78 178/181/80 183/186/89 183/186/89 
f 178/181/80 179/182/82 183/186/89 183/186/89 
f 179/182/82 180/183/84 183/186/89 183/186/89 
f 180/183/84 181/184/86 183/186/89 183/186/89 
f 181/184/86 182/185/88 183/186/89 183/186/89 
f 182/185/88 160/162/44 183/186/89 183/186/89 
s 1
f 183/186/89 183/186/89 183/186/89 183/186/89 183/186/89 183/186/89 183/186/89 183/186/89 183/186/89 183/186/89 183/186/89 183/186/89 183/186/89 183/186/89 183/186/89 183/186/89 183/186/89 183/186/89 183/186/89 183/186/89 183/186/89 183/186/89 183/186/89 183/186/89 
s off
f 64/62/42 63/61/41 63/61/90 64/62/90 
f 63/61/41 109/187/87 109/187/90 63/61/90 
f 109/187/87 107/188/85 107/188/90 109/187/90 
f 107/188/85 105/189/83 105/189/90 107/188/90 
f 105/189/83 103/190/81 103/190/90 105/189/90 
f 103/190/81 101/191/79 101/191/90 103/190/90 
f 101/191/79 99/192/77 99/192/91 101/191/90 
f 99/192/77 97/193/75 97/193/89 99/192/91 
f 97/193/75 95/194/73 95/194/91 97/193/89 
f 95/194/73 93/195/71 93/195/91 95/194/91 
f 93/195/71 91/196/69 91/196/90 93/195/91 
f 91/196/69 89/197/67 89/197/91 91/196/90 
f 89/197/67 87/198/65 87/198/89 89/197/91 
f 87/198/65 85/199/63 85/199/90 87/198/89 
f 85/199/63 83/200/61 83/200/91 85/199/90 
f 83/200/61 81/201/59 81/201/90 83/200/91 
f 81/201/59 79/202/57 79/202/89 81/201/90 
f 79/202/57 77/203/55 77/203/89 79/202/89 
f 77/203/55 75/73/53 75/73/90 77/203/89 
f 75/73/53 73/71/51 73/71/90 75/73/90 
f 73/71/51 71/69/49 71/69/90 73/71/90 
f 71/69/49 69/67/47 69/67/90 71/69/90 
f 69/67/47 67/65/45 67/65/90 69/67/90 
f 67/65/45 64/62/42 64/62/90 67/65/90 
f 64/62/90 63/61/90 184/61/90 185/62/90 
f 63/61/90 109/187/90 186/187/90 184/61/90 
f 109/187/90 107/188/90 187/188/90 186/187/90 
f 107/188/90 105/189/90 188/189/90 187/188/90 
f 105/189/90 103/190/90 189/190/90 188/189/90 
f 103/190/90 101/191/90 190/191/90 189/190/90 
f 101/191/90 99/192/91 191/192/90 190/191/90 
f 99/192/91 97/193/89 192/193/90 191/192/90 
f 97/193/89 95/194/91 193/194/90 192/193/90 
f 95/194/91 93/195/91 194/195/90 193/194/90 
f 93/195/91 91/196/90 195/196/90 194/195/90 
f 91/196/90 89/197/91 196/197/90 195/196/90 
f 89/197/91 87/198/89 197/198/90 196/197/90 
f 87/198/89 85/199/90 198/199/90 197/198/90 
f 85/199/90 83/200/91 199/200/90 198/199/90 
f 83/200/91 81/201/90 200/201/90 199/200/90 
f 81/201/90 79/202/89 201/202/90 200/201/90 
f 79/202/89 77/203/89 202/203/90 201/202/90 
f 77/203/89 75/73/90 203/73/90 202/203/90 
f 75/73/90 73/71/90 204/71/90 203/73/90 
f 73/71/90 71/69/90 205/69/90 204/71/90 
f 71/69/90 69/67/90 206/67/90 205/69/90 
f 69/67/90 67/65/90 207/65/90 206/67/90 
f 67/65/90 64/62/90 185/62/90 207/65/90 
# 169 polygons

